<svg width="113" height="100" viewBox="0 0 113 100" fill="none" xmlns="http://www.w3.org/2000/svg">
<path d="M32.0188 32.8125L36.9625 0H11.25L0.50625 28.125C0.175 29.125 0 30.1625 0 31.25C0 38.15 7.1875 43.75 16.0688 43.75C24.2563 43.75 31.025 38.975 32.0188 32.8125ZM56.25 43.75C65.125 43.75 72.3188 38.15 72.3188 31.25C72.3188 30.9937 72.3 30.7375 72.2875 30.4938L69.1063 0H43.3938L40.2063 30.4688C40.1938 30.725 40.1813 30.9813 40.1813 31.25C40.1813 38.15 47.375 43.75 56.25 43.75ZM87.5 50.2875V75H25V50.325C22.2625 51.3125 19.25 51.875 16.0688 51.875C14.85 51.875 13.6688 51.7313 12.5 51.5688V91.25C12.5 96.0625 16.4313 100 21.2375 100H91.25C96.0625 100 100 96.0563 100 91.25V51.575C98.8186 51.7564 97.6263 51.8587 96.4313 51.8812C93.3837 51.8782 90.3605 51.3387 87.5 50.2875ZM112 28.125L101.244 0H75.5375L80.475 32.7625C81.4375 38.95 88.2063 43.75 96.4313 43.75C105.306 43.75 112.5 38.15 112.5 31.25C112.5 30.1625 112.325 29.125 112 28.125Z" fill="#FF3333"/>
</svg>
