<svg width="125" height="88" viewBox="0 0 125 88" fill="none" xmlns="http://www.w3.org/2000/svg">
<path d="M37.5 43.75C49.5898 43.75 59.375 33.9648 59.375 21.875C59.375 9.78516 49.5898 0 37.5 0C25.4102 0 15.625 9.78516 15.625 21.875C15.625 33.9648 25.4102 43.75 37.5 43.75ZM52.5 50H50.8789C46.8164 51.9531 42.3047 53.125 37.5 53.125C32.6953 53.125 28.2031 51.9531 24.1211 50H22.5C10.0781 50 0 60.0781 0 72.5V78.125C0 83.3008 4.19922 87.5 9.375 87.5H65.625C70.8008 87.5 75 83.3008 75 78.125V72.5C75 60.0781 64.9219 50 52.5 50ZM93.75 43.75C104.102 43.75 112.5 35.3516 112.5 25C112.5 14.6484 104.102 6.25 93.75 6.25C83.3984 6.25 75 14.6484 75 25C75 35.3516 83.3984 43.75 93.75 43.75ZM103.125 50H102.383C99.668 50.9375 96.7969 51.5625 93.75 51.5625C90.7031 51.5625 87.832 50.9375 85.1172 50H84.375C80.3906 50 76.7188 51.1523 73.4961 53.0078C78.2617 58.1445 81.25 64.9609 81.25 72.5V80C81.25 80.4297 81.1523 80.8398 81.1328 81.25H115.625C120.801 81.25 125 77.0508 125 71.875C125 59.7852 115.215 50 103.125 50Z" fill="#FF3333"/>
</svg>
