<svg width="84" height="106" viewBox="0 0 84 106" fill="none" xmlns="http://www.w3.org/2000/svg">
<path d="M42 0.5C31.0638 0.512902 20.5792 4.86302 12.8461 12.5961C5.11306 20.3292 0.762946 30.8138 0.750044 41.75C0.736946 50.6871 3.65622 59.3817 9.06004 66.5C9.06004 66.5 10.185 67.9812 10.3688 68.195L42 105.5L73.6463 68.1763C73.8113 67.9775 74.94 66.5 74.94 66.5L74.9438 66.4888C80.3449 59.3735 83.2629 50.683 83.25 41.75C83.2371 30.8138 78.887 20.3292 71.1539 12.5961C63.4209 4.86302 52.9363 0.512902 42 0.5ZM55.5 60.5L42 51.9087L28.5 60.5L30.75 45.2225L19.5 34.8988L35.25 32.9975L42 19.25L49.17 33.0013L64.5 34.8988L53.25 45.2225L55.5 60.5Z" fill="#FF3333"/>
</svg>
